<?xml version="1.0" encoding="UTF-8" standalone="no"?>
<!-- Svg Vector Icons : http://www.onlinewebfonts.com/icon -->

<svg
   version="1.1"
   x="0px"
   y="0px"
   viewBox="0 0 1000 1000"
   enable-background="new 0 0 1000 1000"
   xml:space="preserve"
   id="svg4"
   sodipodi:docname="logout.svg"
   inkscape:version="1.3.2 (091e20ef0f, 2023-11-25, custom)"
   xmlns:inkscape="http://www.inkscape.org/namespaces/inkscape"
   xmlns:sodipodi="http://sodipodi.sourceforge.net/DTD/sodipodi-0.dtd"
   xmlns="http://www.w3.org/2000/svg"
   xmlns:svg="http://www.w3.org/2000/svg"><defs
   id="defs4" /><sodipodi:namedview
   id="namedview4"
   pagecolor="#505050"
   bordercolor="#eeeeee"
   borderopacity="1"
   inkscape:showpageshadow="0"
   inkscape:pageopacity="0"
   inkscape:pagecheckerboard="0"
   inkscape:deskcolor="#505050"
   inkscape:zoom="0.236"
   inkscape:cx="497.88136"
   inkscape:cy="497.88136"
   inkscape:window-width="2256"
   inkscape:window-height="1472"
   inkscape:window-x="0"
   inkscape:window-y="0"
   inkscape:window-maximized="1"
   inkscape:current-layer="svg4" />
<metadata
   id="metadata1"> Svg Vector Icons : http://www.onlinewebfonts.com/icon </metadata>
<g
   id="g4"
   transform="matrix(0.15305732,0,0,0.15305732,423.48193,423.47134)"><path
     d="M 622.5,990 H 50.8 C 26.3,990 10,973.7 10,949.2 V 50.8 C 10,26.3 26.3,10 50.8,10 h 571.7 c 24.5,0 40.8,16.3 40.8,40.8 v 285.8 c 0,24.5 -16.3,40.8 -40.8,40.8 -24.5,0 -40.8,-16.3 -40.8,-40.8 v -245 h -490 v 816.7 h 490 v -245 c 0,-24.5 16.3,-40.8 40.8,-40.8 24.5,0 40.8,16.3 40.8,40.8 v 285.8 c 0,24.6 -16.3,40.9 -40.8,40.9 z"
     id="path1" /><path
     d="M 949.2,540.8 H 336.7 c -24.5,0 -40.8,-16.3 -40.8,-40.8 0,-24.5 16.3,-40.8 40.8,-40.8 h 612.5 c 24.5,0 40.8,16.3 40.8,40.8 0,24.5 -16.3,40.8 -40.8,40.8 z"
     id="path2" /><path
     d="m 949.2,540.8 c -12.3,0 -20.4,-4.1 -28.6,-12.3 L 757.3,365.3 c -16.3,-16.3 -16.3,-40.8 0,-57.2 16.3,-16.3 40.8,-16.3 57.2,0 l 163.3,163.3 c 16.3,16.3 16.3,40.8 0,57.2 -8.2,8.2 -16.4,12.2 -28.6,12.2 z"
     id="path3" /><path
     d="m 785.8,704.2 c -12.3,0 -20.4,-4.1 -28.6,-12.3 -16.3,-16.3 -16.3,-40.8 0,-57.2 L 920.5,471.4 c 16.3,-16.3 40.8,-16.3 57.2,0 16.3,16.3 16.3,40.8 0,57.2 L 814.4,691.9 c -8.1,8.2 -16.3,12.3 -28.6,12.3 z"
     id="path4" /></g>
</svg>
