<?xml version="1.0" encoding="UTF-8" standalone="no"?>
<!-- Svg Vector Icons : http://www.onlinewebfonts.com/icon -->

<svg
   version="1.1"
   x="0px"
   y="0px"
   viewBox="0 0 1000 1000"
   enable-background="new 0 0 1000 1000"
   xml:space="preserve"
   id="svg1"
   sodipodi:docname="shutdown.svg"
   inkscape:export-filename="shutdown.png"
   inkscape:export-xdpi="14.4"
   inkscape:export-ydpi="14.4"
   inkscape:version="1.3.2 (091e20ef0f, 2023-11-25, custom)"
   xmlns:inkscape="http://www.inkscape.org/namespaces/inkscape"
   xmlns:sodipodi="http://sodipodi.sourceforge.net/DTD/sodipodi-0.dtd"
   xmlns="http://www.w3.org/2000/svg"
   xmlns:svg="http://www.w3.org/2000/svg"><defs
   id="defs1" /><sodipodi:namedview
   id="namedview1"
   pagecolor="#505050"
   bordercolor="#eeeeee"
   borderopacity="1"
   inkscape:showpageshadow="0"
   inkscape:pageopacity="0"
   inkscape:pagecheckerboard="0"
   inkscape:deskcolor="#505050"
   inkscape:zoom="0.236"
   inkscape:cx="500"
   inkscape:cy="497.88136"
   inkscape:window-width="2256"
   inkscape:window-height="1472"
   inkscape:window-x="0"
   inkscape:window-y="0"
   inkscape:window-maximized="1"
   inkscape:current-layer="svg1" />
<metadata
   id="metadata1"> Svg Vector Icons : http://www.onlinewebfonts.com/icon </metadata>
<g
   id="g1"
   transform="matrix(0.16281342,0,0,0.16281342,418.63515,418.59329)"><path
     d="m 764,152.1 c 30.9,22 58.3,46.8 82.4,74.6 24,27.8 44.6,57.8 61.8,90.1 17.2,32.3 30.2,66.4 39.1,102.4 8.9,36 13.4,72.6 13.4,109.6 0,63.8 -12.2,123.7 -36.5,179.6 -24.4,55.9 -57.3,104.7 -98.8,146.2 -41.5,41.5 -90.2,74.5 -146.2,98.8 C 623.2,977.8 563.3,990 499.5,990 436.4,990 376.8,977.8 320.9,953.5 265,929.1 216.1,896.2 174.2,854.7 132.3,813.2 99.4,764.5 75.4,708.5 c -24,-55.9 -36,-115.8 -36,-179.6 0,-36.4 4.3,-72.1 12.9,-107.1 8.6,-35 20.8,-68.3 36.5,-99.9 15.8,-31.6 35.3,-61.1 58.7,-88.5 23.3,-27.5 49.4,-52.2 78.2,-74.1 15.1,-11 31.4,-15.1 48.9,-12.4 17.5,2.7 31.7,11.3 42.7,25.7 11,14.4 15.1,30.5 12.4,48.4 -2.7,17.8 -11.3,32.3 -25.7,43.2 -43.2,31.6 -76.4,70.3 -99.3,116.3 -23,46 -34.5,95.4 -34.5,148.2 0,45.3 8.6,88 25.7,128.2 17.2,40.1 40.7,75.1 70.5,105 29.9,29.9 64.9,53.5 105,71 40.1,17.5 82.9,26.3 128.2,26.3 45.3,0 88,-8.7 128.2,-26.3 40.1,-17.5 75.1,-41.2 105,-71 29.9,-29.8 53.5,-64.9 71,-105 17.5,-40.1 26.3,-82.9 26.3,-128.2 0,-53.5 -12.4,-104.1 -37.1,-151.8 -24.7,-47.7 -59.4,-87 -104,-117.9 -15.1,-10.3 -24.2,-24.4 -27.3,-42.2 -3.1,-17.8 0.5,-34.3 10.8,-49.4 10.3,-14.4 24.4,-23.2 42.2,-26.2 17.8,-3 34.2,0.6 49.3,10.9 z M 499.5,531.9 c -17.8,0 -33.1,-6.3 -45.8,-19 -12.7,-12.7 -19,-28 -19,-45.8 V 75.9 c 0,-17.8 6.3,-33.3 19,-46.3 12.7,-13 28,-19.6 45.8,-19.6 18.5,0 34.1,6.5 46.8,19.6 12.7,13 19,28.5 19,46.3 v 391.2 c 0,17.8 -6.3,33.1 -19,45.8 -12.7,12.7 -28.3,19 -46.8,19 z"
     id="path1" /></g>
</svg>
